# xmcd
#
# Track frame offsets:
#	150
#	238288
#	246402
#	261094
#	276610
#	287258
#	299715
#	309533
#
# Disc length: 4141 seconds
#
# Revision: 0
# Processed by: cddbd v1.5.2PL0 Copyright (c) Steve Scherf et al.
# Submitted via: dBpowerAMP V4.0
#
DISCID=86102b08
DTITLE=mary mary - mary mary
DYEAR=1900
DGENRE=Gospel
TTITLE0=DATA
TTITLE1=heaven
TTITLE2=believer
TTITLE3=r
TTITLE4=a real party
TTITLE5=save me
TTITLE6=3
TTITLE7=rf
EXTD=
EXTT0=
EXTT1=
EXTT2=
EXTT3=
EXTT4=
EXTT5=
EXTT6=
EXTT7=
PLAYORDER=
